<svg id="Component_37_1" data-name="Component 37 – 1" xmlns="http://www.w3.org/2000/svg" xmlns:xlink="http://www.w3.org/1999/xlink" width="179" height="39" viewBox="0 0 179 39">
  <defs>
    <linearGradient id="linear-gradient" x1="0.033" y1="0.5" x2="0.962" y2="0.5" gradientUnits="objectBoundingBox">
      <stop offset="0" stop-color="#90e4ee"/>
      <stop offset="0.534" stop-color="#5c82b8"/>
      <stop offset="1" stop-color="#90e4ee"/>
    </linearGradient>
  </defs>
  <rect id="Rectangle_129" data-name="Rectangle 129" width="179" height="39" fill="url(#linear-gradient)"/>
  <text id="Browse_Prodcts" data-name="Browse Prodcts" transform="translate(36 24)" fill="#fff" font-size="14" font-family="Calibri-Bold, Calibri" font-weight="700"><tspan x="0" y="0">Browse Prodcts</tspan></text>
  <g id="Component_33_1" data-name="Component 33 – 1" transform="translate(14 16.5)">
    <path id="Path_35" data-name="Path 35" d="M0,0H8" transform="translate(0 4)" fill="none" stroke="#2d952a" stroke-width="1"/>
    <path id="Path_36" data-name="Path 36" d="M0,0V8" transform="translate(4)" fill="none" stroke="#2d952a" stroke-width="1"/>
  </g>
  <g id="heart_1_" data-name="heart (1)" transform="translate(139 -19)">
    <g id="Group_2" data-name="Group 2" transform="translate(0 30)">
      <path id="Path_4" data-name="Path 4" d="M14.6,30a4.9,4.9,0,0,0-2.941.955A6.4,6.4,0,0,0,9.944,32.9a6.4,6.4,0,0,0-1.72-1.945A4.9,4.9,0,0,0,5.283,30,5.217,5.217,0,0,0,0,35.385c0,3.317,2.833,5.586,7.123,9.021.728.583,1.554,1.245,2.412,1.95a.652.652,0,0,0,.818,0c.858-.705,1.684-1.367,2.413-1.95,4.289-3.435,7.122-5.7,7.122-9.021A5.217,5.217,0,0,0,14.6,30Z" transform="translate(0 -30)" fill="#fd3018"/>
    </g>
  </g>
</svg>
