<svg id="Component_30_2" data-name="Component 30 – 2" xmlns="http://www.w3.org/2000/svg" width="158" height="52" viewBox="0 0 158 52">
  <rect id="Rectangle_38" data-name="Rectangle 38" width="158" height="52" rx="15" fill="#6a5acd"/>
  <text id="Buy_Now" data-name="Buy Now" transform="translate(34.984 31.79)" fill="#fff" font-size="16" font-family="FranklinGothic-Medium, Franklin Gothic" font-weight="500"><tspan x="0" y="0">Buy Now</tspan></text>
  <g id="payment-method" transform="translate(106.67 10.705)">
    <g id="Group_4" data-name="Group 4" transform="translate(9.939 22.527)">
      <g id="Group_3" data-name="Group 3">
        <path id="Path_7" data-name="Path 7" d="M154.038,384.329a.567.567,0,0,0-.037-.11.6.6,0,0,0-.141-.19.613.613,0,0,0-.1-.073.7.7,0,0,0-.234-.087.709.709,0,0,0-.254,0,.689.689,0,0,0-.234.087.613.613,0,0,0-.1.073.575.575,0,0,0-.081.089.54.54,0,0,0-.06.1.522.522,0,0,0-.037.339.511.511,0,0,0,.037.11.526.526,0,0,0,.06.1.575.575,0,0,0,.081.089.615.615,0,0,0,.1.073.688.688,0,0,0,.234.087.693.693,0,0,0,.254,0,.661.661,0,0,0,.122-.033.671.671,0,0,0,.113-.054.615.615,0,0,0,.1-.073.575.575,0,0,0,.081-.089.56.56,0,0,0,.06-.1.55.55,0,0,0,.037-.11.509.509,0,0,0,0-.229Z" transform="translate(-152.75 -383.857)" fill="#fff"/>
      </g>
    </g>
    <g id="Group_6" data-name="Group 6" transform="translate(0 18.193)">
      <g id="Group_5" data-name="Group 5">
        <path id="Path_8" data-name="Path 8" d="M29.93,314.909l-.008-.017c-.6-1.263-2-1.729-3.666-1.218l-4.533,1.13a2.842,2.842,0,0,0-1.84-1.633l-.017-.006-4.983-1.524a5.3,5.3,0,0,0-8.21.477H.651A.621.621,0,0,0,0,312.7V320.1a.621.621,0,0,0,.651.586H4.519a.621.621,0,0,0,.651-.586v-.506H6.984A.621.621,0,0,0,7.635,319v-.169a4.943,4.943,0,0,1,2.377.769,41.133,41.133,0,0,0,3.909,1.8l.029.011a6.4,6.4,0,0,0,2.093.356,5.676,5.676,0,0,0,2.156-.416l10.02-3.233.053-.019C29.228,317.7,30.655,316.585,29.93,314.909Zm-26.062,4.6H1.3v-6.219H3.869Zm2.465-1.093H5.17v-5.127H6.334Zm21.417-1.392-10.015,3.231-.029.01-.026.01a4.646,4.646,0,0,1-3.24.05,39.356,39.356,0,0,1-3.778-1.739,6.286,6.286,0,0,0-3.027-.928v-4.722a4.062,4.062,0,0,1,3.1-1.843,3.869,3.869,0,0,1,3.185,1.348.643.643,0,0,0,.345.248l5.171,1.581c.826.279,1.262.917,1.062,1.552a1.164,1.164,0,0,1-.6.685,1.383,1.383,0,0,1-.955.1l-5.83-1.665a.667.667,0,0,0-.817.382.577.577,0,0,0,.424.736l5.84,1.667.019.005a2.847,2.847,0,0,0,.706.089,2.777,2.777,0,0,0,1.247-.294,2.358,2.358,0,0,0,1.221-1.389q.022-.071.04-.142l4.885-1.219c.706-.217,1.632-.3,2.044.56C29.149,316.348,28.039,316.9,27.751,317.025Z" transform="translate(0 -309.922)"/>
      </g>
    </g>
    <g id="Group_8" data-name="Group 8" transform="translate(22.074 7.263)">
      <g id="Group_7" data-name="Group 7">
        <path id="Path_9" data-name="Path 9" d="M340.539,123.97a.528.528,0,0,0-.038-.11.538.538,0,0,0-.06-.1.576.576,0,0,0-.081-.089.615.615,0,0,0-.1-.073.692.692,0,0,0-.234-.087.714.714,0,0,0-.254,0,.7.7,0,0,0-.234.087.616.616,0,0,0-.1.073.6.6,0,0,0-.141.19.522.522,0,0,0-.037.339.511.511,0,0,0,.037.11.562.562,0,0,0,.06.1.576.576,0,0,0,.081.089.616.616,0,0,0,.1.073.669.669,0,0,0,.113.054.722.722,0,0,0,.249.045.722.722,0,0,0,.128-.012.746.746,0,0,0,.122-.033.688.688,0,0,0,.112-.054.614.614,0,0,0,.1-.073.576.576,0,0,0,.081-.089.525.525,0,0,0,.06-.1.512.512,0,0,0,.038-.11.535.535,0,0,0,0-.229Z" transform="translate(-339.25 -123.498)" fill="#fff"/>
      </g>
    </g>
    <g id="Group_10" data-name="Group 10" transform="translate(1.932 0.023)">
      <g id="Group_9" data-name="Group 9">
        <path id="Path_10" data-name="Path 10" d="M60.422,2.009H56.554A.621.621,0,0,0,55.9,2.6V3.1H54.089a.621.621,0,0,0-.651.586v.169a4.943,4.943,0,0,1-2.377-.769,41.124,41.124,0,0,0-3.909-1.8l-.029-.011a6.1,6.1,0,0,0-4.249.06l-2.618.845L38.05.195a.7.7,0,0,0-.92,0L29.884,6.724a.542.542,0,0,0,0,.829L42.265,18.71a.762.762,0,0,0,.92,0L49.8,12.749c.172.013.35.021.535.021a5.315,5.315,0,0,0,4.064-2.2h6.023a.621.621,0,0,0,.651-.586V2.6A.621.621,0,0,0,60.422,2.009Zm-22.833-.57,1.483,1.336a3.1,3.1,0,0,1-2.966,0ZM32.747,8.475,31.264,7.138,32.747,5.8a2.343,2.343,0,0,1,0,2.673Zm9.978,8.991L41.243,16.13a3.1,3.1,0,0,1,2.965,0Zm2.42-2.181a4.507,4.507,0,0,0-4.84,0L33.684,9.319a3.431,3.431,0,0,0,0-4.362L35.169,3.62a4.407,4.407,0,0,0,2.42.705,4.407,4.407,0,0,0,2.42-.705l1.407,1.268a2.763,2.763,0,0,0-.876.269,2.419,2.419,0,0,0-1.06,1.009,3.855,3.855,0,0,0-1.946.923,3.117,3.117,0,0,0,0,4.726,4.008,4.008,0,0,0,5.245,0,3.267,3.267,0,0,0,.965-1.513l2.2.672a3.452,3.452,0,0,0,.689,2.971ZM41.189,9.521l.017.006,1.3.4a2.109,2.109,0,0,1-.648,1.062,2.6,2.6,0,0,1-3.4,0,2.023,2.023,0,0,1,0-3.068,2.439,2.439,0,0,1,.785-.472A2.683,2.683,0,0,0,41.189,9.521Zm6.379,3.58a2.387,2.387,0,0,1-.416-1.219,5.254,5.254,0,0,0,1.148.56Zm5.869-3.348a4.061,4.061,0,0,1-3.1,1.843,5.247,5.247,0,0,1-.679-.043h0a3.824,3.824,0,0,1-2.41-1.188c-.013-.018-.07-.084-.078-.1A.637.637,0,0,0,46.807,10L41.634,8.419c-.826-.279-1.262-.916-1.062-1.552h0a1.164,1.164,0,0,1,.6-.683,1.382,1.382,0,0,1,.955-.1l5.83,1.665a.667.667,0,0,0,.817-.382.577.577,0,0,0-.424-.736L43.716,5.3l-.04-.036h0L41.274,3.1l2.063-.666.022-.008.007,0,.026-.01a4.646,4.646,0,0,1,3.24-.05A39.368,39.368,0,0,1,50.411,4.1a6.286,6.286,0,0,0,3.027.928ZM55.9,9.4H54.739V4.274H55.9Zm3.869,0H57.2V3.182h2.567Z" transform="translate(-29.691 -0.023)"/>
      </g>
    </g>
  </g>
</svg>
