<svg xmlns="http://www.w3.org/2000/svg" width="24.734" height="25" viewBox="0 0 24.734 25">
  <g id="dustbin" transform="translate(-5.661 -2)">
    <path id="Path_12" data-name="Path 12" d="M28.49,36.033H13.43a1.174,1.174,0,0,1-1.2-1L10.506,16.438a.337.337,0,0,1,.1-.272.415.415,0,0,1,.291-.115H31.023a.415.415,0,0,1,.291.115.337.337,0,0,1,.1.272L29.7,35.031A1.174,1.174,0,0,1,28.49,36.033ZM11.328,16.765l1.685,18.206a.406.406,0,0,0,.417.347H28.49a.406.406,0,0,0,.417-.347l1.685-18.206Z" transform="translate(-2.932 -9.033)" fill="#fff"/>
    <path id="Path_13" data-name="Path 13" d="M29.539,12.033H6.516a.819.819,0,0,1-.855-.774v-1.8a.818.818,0,0,1,.855-.774H29.539a.818.818,0,0,1,.855.774v1.8a.819.819,0,0,1-.855.774ZM6.516,9.4a.063.063,0,0,0-.066.06v1.8a.063.063,0,0,0,.066.06H29.539a.063.063,0,0,0,.066-.06v-1.8a.063.063,0,0,0-.066-.06Z" transform="translate(0 -4.297)" fill="#fff"/>
    <path id="Path_14" data-name="Path 14" d="M34.537,5.1H27.583a.377.377,0,0,1-.395-.357V2.935A.989.989,0,0,1,28.221,2H33.9a.989.989,0,0,1,1.033.935v1.81A.377.377,0,0,1,34.537,5.1Zm-6.56-.714h6.165V2.935a.233.233,0,0,0-.244-.221H28.221a.233.233,0,0,0-.244.221Z" transform="translate(-13.032 0)" fill="#fff"/>
    <path id="Path_15" data-name="Path 15" d="M46.856,37.949h-.035a.369.369,0,0,1-.359-.387l.9-9.333a.385.385,0,0,1,.428-.325.369.369,0,0,1,.359.387l-.9,9.331A.381.381,0,0,1,46.856,37.949Z" transform="translate(-24.7 -16.652)" fill="#fff"/>
    <path id="Path_16" data-name="Path 16" d="M36.395,37.946A.377.377,0,0,1,36,37.589V28.257a.4.4,0,0,1,.789,0v9.332A.377.377,0,0,1,36.395,37.946Z" transform="translate(-18.367 -16.65)" fill="#fff"/>
    <path id="Path_17" data-name="Path 17" d="M24.548,37.946a.382.382,0,0,1-.395-.326l-.9-9.332a.369.369,0,0,1,.358-.387.385.385,0,0,1,.428.325l.9,9.333a.369.369,0,0,1-.359.387Z" transform="translate(-10.648 -16.65)" fill="#fff"/>
  </g>
</svg>
