<svg id="heart" xmlns="http://www.w3.org/2000/svg" width="32" height="26" viewBox="0 0 32 26">
  <path id="heart-2" data-name="heart" d="M16,55.836a.985.985,0,0,1-.618-.213l-.041-.033c-1.363-1.1-2.644-2.1-3.882-3.071a70.772,70.772,0,0,1-8.188-7.035C1.04,43.042,0,40.764,0,38.315A8.5,8.5,0,0,1,2.335,32.39,8.432,8.432,0,0,1,8.5,29.836a8.287,8.287,0,0,1,6.7,3.406A11.159,11.159,0,0,1,16,34.43a11.169,11.169,0,0,1,.8-1.188,8.288,8.288,0,0,1,6.7-3.406A8.347,8.347,0,0,1,32,38.315c0,2.449-1.04,4.726-3.272,7.168a70.773,70.773,0,0,1-8.188,7.035c-1.239.971-2.519,1.974-3.882,3.071l-.041.033A.984.984,0,0,1,16,55.836ZM8.5,31.56a6.508,6.508,0,0,0-4.759,1.97,6.861,6.861,0,0,0-1.866,4.785c0,4.426,4.3,7.794,10.8,12.891,1.068.837,2.166,1.7,3.325,2.624,1.158-.926,2.257-1.787,3.325-2.624,6.5-5.1,10.8-8.464,10.8-12.891a6.861,6.861,0,0,0-1.866-4.785A6.508,6.508,0,0,0,23.5,31.56a6.44,6.44,0,0,0-5.174,2.678,9.908,9.908,0,0,0-1.435,2.625.965.965,0,0,1-1.783,0,9.908,9.908,0,0,0-1.435-2.624A6.44,6.44,0,0,0,8.5,31.56Z" transform="translate(0 -29.836)" fill="#fd3018"/>
</svg>
