<svg id="Component_37_1" data-name="Component 37 – 1" xmlns="http://www.w3.org/2000/svg" xmlns:xlink="http://www.w3.org/1999/xlink" width="179" height="39" viewBox="0 0 179 39">
  <defs>
    <linearGradient id="linear-gradient" x1="0.033" y1="0.5" x2="0.962" y2="0.5" gradientUnits="objectBoundingBox">
      <stop offset="0" stop-color="#90e4ee"/>
      <stop offset="0.371" stop-color="#87a5cf"/>
      <stop offset="1" stop-color="#6767bc"/>
    </linearGradient>
  </defs>
  <rect id="Rectangle_129" data-name="Rectangle 129" width="179" height="39" fill="url(#linear-gradient)"/>
  <text id="Order_Now" data-name="Order Now" transform="translate(35 26)" fill="#fff" font-size="20" font-family="Calibri-Bold, Calibri" font-weight="700"><tspan x="0" y="0">Order Now</tspan></text>
  <g id="cart" transform="translate(135.28 -2.09)">
    <g id="Group_1" data-name="Group 1" transform="translate(6.504 28.463)">
      <ellipse id="Ellipse_1" data-name="Ellipse 1" cx="2.71" cy="2.612" rx="2.71" ry="2.612" transform="translate(10.84)" fill="#455a64"/>
      <ellipse id="Ellipse_2" data-name="Ellipse 2" cx="2.71" cy="2.612" rx="2.71" ry="2.612" fill="#455a64"/>
    </g>
    <path id="Path_1" data-name="Path 1" d="M105.8,74.881a.551.551,0,0,0-.407-.177H85.885a.532.532,0,0,0-.542.523.509.509,0,0,0,.009.1l1.626,8.358a.537.537,0,0,0,.532.426H102.4a2.678,2.678,0,0,0,2.69-2.288l.851-6.527A.51.51,0,0,0,105.8,74.881Z" transform="translate(-81.006 -60.867)" fill="#ffc107"/>
    <path id="Path_2" data-name="Path 2" d="M22.223,27.419H9.712a3.772,3.772,0,0,1-3.72-2.939L3.35,11.748H.542a.523.523,0,1,1,0-1.045H3.794a.537.537,0,0,1,.531.418l2.73,13.153a2.7,2.7,0,0,0,2.657,2.1H22.223a.523.523,0,1,1,0,1.045Z" fill="#455a64"/>
  </g>
  <g id="Component_33_1" data-name="Component 33 – 1" transform="translate(14 16.5)">
    <path id="Path_35" data-name="Path 35" d="M0,0H8" transform="translate(0 4)" fill="none" stroke="#2d952a" stroke-width="1"/>
    <path id="Path_36" data-name="Path 36" d="M0,0V8" transform="translate(4)" fill="none" stroke="#2d952a" stroke-width="1"/>
  </g>
</svg>
