<svg id="Component_35_1" data-name="Component 35 – 1" xmlns="http://www.w3.org/2000/svg" xmlns:xlink="http://www.w3.org/1999/xlink" width="216" height="80" viewBox="0 0 216 80">
  <defs>
    <linearGradient id="linear-gradient" y1="0.5" x2="1" y2="0.5" gradientUnits="objectBoundingBox">
      <stop offset="0" stop-color="#90e4ee"/>
      <stop offset="1" stop-color="#6767bc"/>
    </linearGradient>
  </defs>
  <rect id="Rectangle_75" data-name="Rectangle 75" width="216" height="80" rx="15" fill="#fff"/>
  <g id="university" transform="translate(14 -17.038)">
    <g id="Group_13" data-name="Group 13" transform="translate(0 21.68)">
      <g id="Group_12" data-name="Group 12" transform="translate(0 0)">
        <path id="Path_48" data-name="Path 48" d="M32.431,36.73H25.154V35.208a.626.626,0,0,0-.29-.536l-7.795-4.743V27.514h1.542v.918a.594.594,0,0,0,.569.616h4.648a.594.594,0,0,0,.569-.616.662.662,0,0,0-.034-.209L23.9,26.787l.472-1.4a.631.631,0,0,0-.342-.789.531.531,0,0,0-.193-.037H21.717v-.893a.594.594,0,0,0-.569-.616H17.069V22.3a.571.571,0,1,0-1.138,0v7.633L8.136,34.666a.626.626,0,0,0-.29.536v1.522H.569A.594.594,0,0,0,0,37.34V53.455a.594.594,0,0,0,.569.616H32.431A.594.594,0,0,0,33,53.455V37.346A.594.594,0,0,0,32.431,36.73ZM21.717,26.9l-.023-.025v-1.06h1.3l-.233.789a.664.664,0,0,0,0,.425l.267.789H19.749v-.3h1.4A.594.594,0,0,0,21.717,26.9ZM17.069,24.28h3.511v2H17.069ZM7.846,52.839H1.138V37.962H7.846Zm8.085,0H12.944V45.8h2.987Zm4.125,0H17.069V45.8h2.987Zm3.983,0H21.194V45.188a.594.594,0,0,0-.569-.616h-8.25a.594.594,0,0,0-.569.616v7.651H8.961V35.59l7.539-4.6,7.516,4.571.023,1.774Zm7.823,0H25.154V37.962h6.708Z" transform="translate(0 -21.68)"/>
      </g>
    </g>
    <g id="Group_15" data-name="Group 15" transform="translate(14.116 32.88)">
      <g id="Group_14" data-name="Group 14">
        <path id="Path_49" data-name="Path 49" d="M200.864,167.12a2.59,2.59,0,1,0,2.384,2.575A2.495,2.495,0,0,0,200.864,167.12Zm0,3.93a1.353,1.353,0,1,1,1.246-1.343h.006A1.3,1.3,0,0,1,200.864,171.05Z" transform="translate(-198.48 -167.12)"/>
      </g>
    </g>
    <g id="Group_17" data-name="Group 17" transform="translate(2.509 39.317)">
      <g id="Group_16" data-name="Group 16">
        <rect id="Rectangle_76" data-name="Rectangle 76" width="1.138" height="2.464"/>
      </g>
    </g>
    <g id="Group_19" data-name="Group 19" transform="translate(5.314 39.317)">
      <g id="Group_18" data-name="Group 18">
        <rect id="Rectangle_77" data-name="Rectangle 77" width="1.138" height="2.464"/>
      </g>
    </g>
    <g id="Group_21" data-name="Group 21" transform="translate(10.691 39.317)">
      <g id="Group_20" data-name="Group 20">
        <rect id="Rectangle_78" data-name="Rectangle 78" width="2.276" height="1.232"/>
      </g>
    </g>
    <g id="Group_23" data-name="Group 23" transform="translate(15.362 39.317)">
      <g id="Group_22" data-name="Group 22">
        <rect id="Rectangle_79" data-name="Rectangle 79" width="2.276" height="1.232"/>
      </g>
    </g>
    <g id="Group_25" data-name="Group 25" transform="translate(20.033 39.317)">
      <g id="Group_24" data-name="Group 24">
        <rect id="Rectangle_80" data-name="Rectangle 80" width="2.276" height="1.232"/>
      </g>
    </g>
    <g id="Group_27" data-name="Group 27" transform="translate(10.691 42.188)">
      <g id="Group_26" data-name="Group 26" transform="translate(0 0)">
        <rect id="Rectangle_81" data-name="Rectangle 81" width="2.276" height="1.232"/>
      </g>
    </g>
    <g id="Group_29" data-name="Group 29" transform="translate(15.362 42.188)">
      <g id="Group_28" data-name="Group 28" transform="translate(0 0)">
        <rect id="Rectangle_82" data-name="Rectangle 82" width="2.276" height="1.232"/>
      </g>
    </g>
    <g id="Group_31" data-name="Group 31" transform="translate(20.033 42.188)">
      <g id="Group_30" data-name="Group 30" transform="translate(0 0)">
        <rect id="Rectangle_83" data-name="Rectangle 83" width="2.276" height="1.232"/>
      </g>
    </g>
    <g id="Group_33" data-name="Group 33" transform="translate(2.509 44.165)">
      <g id="Group_32" data-name="Group 32">
        <rect id="Rectangle_84" data-name="Rectangle 84" width="1.138" height="2.464"/>
      </g>
    </g>
    <g id="Group_35" data-name="Group 35" transform="translate(5.314 44.165)">
      <g id="Group_34" data-name="Group 34">
        <rect id="Rectangle_85" data-name="Rectangle 85" width="1.138" height="2.464"/>
      </g>
    </g>
    <g id="Group_37" data-name="Group 37" transform="translate(2.509 49.02)">
      <g id="Group_36" data-name="Group 36" transform="translate(0 0)">
        <rect id="Rectangle_86" data-name="Rectangle 86" width="1.138" height="2.464"/>
      </g>
    </g>
    <g id="Group_39" data-name="Group 39" transform="translate(5.314 49.02)">
      <g id="Group_38" data-name="Group 38" transform="translate(0 0)">
        <rect id="Rectangle_87" data-name="Rectangle 87" width="1.138" height="2.464"/>
      </g>
    </g>
    <g id="Group_41" data-name="Group 41" transform="translate(26.548 39.317)">
      <g id="Group_40" data-name="Group 40">
        <rect id="Rectangle_88" data-name="Rectangle 88" width="1.138" height="2.464"/>
      </g>
    </g>
    <g id="Group_43" data-name="Group 43" transform="translate(29.353 39.317)">
      <g id="Group_42" data-name="Group 42">
        <rect id="Rectangle_89" data-name="Rectangle 89" width="1.138" height="2.464"/>
      </g>
    </g>
    <g id="Group_45" data-name="Group 45" transform="translate(26.548 44.165)">
      <g id="Group_44" data-name="Group 44">
        <rect id="Rectangle_90" data-name="Rectangle 90" width="1.138" height="2.464"/>
      </g>
    </g>
    <g id="Group_47" data-name="Group 47" transform="translate(29.353 44.165)">
      <g id="Group_46" data-name="Group 46">
        <rect id="Rectangle_91" data-name="Rectangle 91" width="1.138" height="2.464"/>
      </g>
    </g>
    <g id="Group_49" data-name="Group 49" transform="translate(26.548 49.02)">
      <g id="Group_48" data-name="Group 48" transform="translate(0 0)">
        <rect id="Rectangle_92" data-name="Rectangle 92" width="1.138" height="2.464"/>
      </g>
    </g>
    <g id="Group_51" data-name="Group 51" transform="translate(29.353 49.02)">
      <g id="Group_50" data-name="Group 50" transform="translate(0 0)">
        <rect id="Rectangle_93" data-name="Rectangle 93" width="1.138" height="2.464"/>
      </g>
    </g>
  </g>
  <text id="Diploma_in_Computer_Enginerring" data-name="Diploma in Computer
Enginerring" transform="translate(54 26)" font-size="16" font-family="Calibri"><tspan x="0" y="0">Diploma in Computer</tspan><tspan x="0" y="19">Enginerring</tspan></text>
  <g id="Rectangle_94" data-name="Rectangle 94" transform="translate(14 63)" fill="#fff" stroke="#707070" stroke-width="1">
    <rect width="188" height="6" rx="3" stroke="none"/>
    <rect x="0.5" y="0.5" width="187" height="5" rx="2.5" fill="none"/>
  </g>
  <rect id="Rectangle_95" data-name="Rectangle 95" width="98" height="6" rx="3" transform="translate(14 63)" fill="url(#linear-gradient)"/>
  <text id="_1st_Yr" data-name="1st Yr" transform="translate(7 59)" font-size="11" font-family="Calibri-Bold, Calibri" font-weight="700"><tspan x="0" y="0">1st Yr</tspan></text>
  <text id="_3rd_Yr" data-name="3rd Yr" transform="translate(183 59)" font-size="11" font-family="Calibri-Bold, Calibri" font-weight="700"><tspan x="0" y="0">3rd Yr</tspan></text>
</svg>
