<svg id="Component_36_1" data-name="Component 36 – 1" xmlns="http://www.w3.org/2000/svg" width="289" height="91" viewBox="0 0 289 91">
  <circle id="Ellipse_17" data-name="Ellipse 17" cx="3" cy="3" r="3" transform="translate(162)" fill="#fff"/>
  <rect id="Rectangle_113" data-name="Rectangle 113" width="289" height="91" rx="10" fill="#282c35"/>
  <g id="React-icon" transform="translate(-9.7 -38)">
    <path id="Path_51" data-name="Path 51" d="M193.7,86.5c0-1.265-1.493-2.463-3.783-3.206.528-2.475.294-4.444-.741-5.074a1.537,1.537,0,0,0-.822-.218v.868a.811.811,0,0,1,.418.1c.5.3.715,1.459.547,2.946-.04.366-.106.751-.187,1.144a16.859,16.859,0,0,0-2.33-.424,18.77,18.77,0,0,0-1.526-1.946,5.324,5.324,0,0,1,3.082-1.825V78h0c-1.009,0-2.33.763-3.665,2.086-1.335-1.315-2.656-2.07-3.665-2.07v.868a5.344,5.344,0,0,1,3.082,1.813,18.185,18.185,0,0,0-1.515,1.942,16.25,16.25,0,0,0-2.333.428c-.084-.389-.147-.767-.191-1.128-.172-1.486.04-2.642.536-2.949a.779.779,0,0,1,.422-.1v-.868h0a1.562,1.562,0,0,0-.829.218c-1.031.63-1.262,2.6-.73,5.062-2.282.747-3.768,1.942-3.768,3.2s1.493,2.463,3.783,3.206c-.528,2.475-.294,4.444.741,5.074a1.54,1.54,0,0,0,.826.218c1.009,0,2.33-.763,3.665-2.086,1.336,1.315,2.656,2.07,3.665,2.07a1.562,1.562,0,0,0,.829-.218c1.031-.63,1.262-2.6.73-5.062C192.214,88.961,193.7,87.763,193.7,86.5Zm-4.777-2.6c-.136.5-.3,1.019-.5,1.537-.15-.311-.308-.623-.481-.934s-.349-.615-.528-.91C187.94,83.681,188.442,83.782,188.923,83.907Zm-1.68,4.144c-.286.525-.58,1.023-.884,1.486-.547.051-1.1.078-1.658.078s-1.108-.027-1.651-.074q-.457-.695-.888-1.479c-.279-.51-.532-1.027-.763-1.549.228-.521.484-1.043.759-1.553.286-.525.58-1.023.884-1.486.547-.051,1.1-.078,1.658-.078s1.108.027,1.651.074q.457.695.888,1.479c.279.51.532,1.027.763,1.549C187.771,87.019,187.518,87.541,187.243,88.051Zm1.185-.506c.2.521.367,1.043.506,1.549-.481.125-.987.23-1.512.311.18-.3.36-.607.528-.922S188.277,87.856,188.428,87.545Zm-3.72,4.152a15.815,15.815,0,0,1-1.02-1.245c.33.016.668.027,1.009.027s.686-.008,1.02-.027A14.979,14.979,0,0,1,184.707,91.7Zm-2.73-2.292c-.521-.082-1.024-.183-1.5-.307.136-.5.3-1.019.5-1.537.15.311.308.623.481.934S181.8,89.109,181.978,89.4Zm2.711-8.1a15.8,15.8,0,0,1,1.02,1.245c-.33-.016-.668-.027-1.009-.027s-.686.008-1.02.027A14.982,14.982,0,0,1,184.689,81.307ZM181.974,83.6c-.18.3-.36.607-.528.922s-.327.623-.477.934c-.2-.521-.367-1.043-.506-1.549C180.943,83.786,181.449,83.681,181.974,83.6Zm-3.32,4.872c-1.3-.588-2.139-1.358-2.139-1.969s.84-1.385,2.139-1.969a10.894,10.894,0,0,1,1.016-.393,19.422,19.422,0,0,0,.826,2.37,19.151,19.151,0,0,0-.815,2.358A10.738,10.738,0,0,1,178.654,88.471Zm1.974,5.56c-.5-.3-.715-1.459-.547-2.946.04-.366.106-.751.187-1.144a16.857,16.857,0,0,0,2.33.424,18.77,18.77,0,0,0,1.526,1.946,5.324,5.324,0,0,1-3.082,1.825A.836.836,0,0,1,180.628,94.031Zm8.7-2.965c.172,1.486-.04,2.642-.536,2.949a.779.779,0,0,1-.422.1,5.344,5.344,0,0,1-3.082-1.813,18.18,18.18,0,0,0,1.515-1.942,16.247,16.247,0,0,0,2.333-.428C189.224,90.327,189.29,90.7,189.33,91.066Zm1.413-2.6a10.893,10.893,0,0,1-1.016.393,19.423,19.423,0,0,0-.826-2.37,19.156,19.156,0,0,0,.815-2.358c.363.121.708.253,1.031.4,1.3.588,2.139,1.358,2.139,1.969S192.042,87.887,190.743,88.471Z" transform="translate(0)" fill="#61dafb"/>
    <path id="Path_52" data-name="Path 52" d="M320.8,78.4Z" transform="translate(-139.776 -0.384)" fill="#61dafb"/>
    <ellipse id="Ellipse_15" data-name="Ellipse 15" cx="1.677" cy="1.778" rx="1.677" ry="1.778" transform="translate(183.02 84.724)" fill="#61dafb"/>
    <path id="Path_53" data-name="Path 53" d="M520.5,78.1Z" transform="translate(-332.149 -0.096)" fill="#61dafb"/>
  </g>
  <g id="nodejs" transform="translate(220 41)">
    <path id="Path_54" data-name="Path 54" d="M9,17a1.886,1.886,0,0,1-.783-.172L5.739,15.594c-.373-.172-.186-.234-.075-.265a4.982,4.982,0,0,0,1.118-.422.2.2,0,0,1,.186.016l1.9.953a.278.278,0,0,0,.224,0l7.435-3.608a.176.176,0,0,0,.112-.172V4.9a.176.176,0,0,0-.112-.172L9.093,1.132a.277.277,0,0,0-.224,0L1.435,4.724a.191.191,0,0,0-.112.172v7.2a.191.191,0,0,0,.112.172l2.031.984c1.1.469,1.789-.078,1.789-.625V5.521a.21.21,0,0,1,.224-.187h.95a.211.211,0,0,1,.224.187v7.106c0,1.234-.8,1.952-2.2,1.952a3.7,3.7,0,0,1-1.714-.39L.783,13.252A1.3,1.3,0,0,1,0,12.112v-7.2a1.3,1.3,0,0,1,.783-1.14L8.217.164a1.949,1.949,0,0,1,1.565,0l7.435,3.608A1.3,1.3,0,0,1,18,4.912v7.2a1.3,1.3,0,0,1-.783,1.14L9.783,16.859A2.224,2.224,0,0,1,9,17Zm2.292-4.951c-3.261,0-3.932-1.249-3.932-2.311a.21.21,0,0,1,.224-.187h.969c.112,0,.2.062.2.156.149.828.578,1.234,2.553,1.234,1.565,0,2.236-.3,2.236-1,0-.406-.186-.7-2.627-.906-2.031-.172-3.3-.547-3.3-1.905,0-1.265,1.267-2.015,3.391-2.015,2.385,0,3.559.687,3.708,2.186a.226.226,0,0,1-.056.141.248.248,0,0,1-.149.062h-.969a.213.213,0,0,1-.205-.141c-.224-.859-.8-1.14-2.329-1.14-1.714,0-1.919.5-1.919.875,0,.453.242.594,2.553.843,2.292.25,3.373.609,3.373,1.952-.019,1.374-1.36,2.155-3.727,2.155Z" transform="translate(-4 -1)" fill="#539e43"/>
  </g>
  <g id="MongoDB_Logo" transform="translate(55.679 34.31)">
    <path id="Path_55" data-name="Path 55" d="M18.364,12.975c-1.439-4.839-4.439-6.127-5.2-7.037a9.729,9.729,0,0,1-.837-1.248,1.16,1.16,0,0,1-.594,1.027,11.118,11.118,0,0,0-5.395,8.691c-.321,5.126,4.945,8.287,5.64,8.613a1.94,1.94,0,0,0,1.5-.18c2.538-1.327,6.006-4.866,4.888-9.866" transform="translate(0)" fill="#10aa50"/>
    <path id="Path_56" data-name="Path 56" d="M67.064,222.46a8.282,8.282,0,0,1-.564,2.731s.221,1.208.376,2.487h.549a18.283,18.283,0,0,1,.6-2.679C67.313,224.733,67.091,223.573,67.064,222.46Z" transform="translate(-54.522 -202.169)" fill="#b8c4c2"/>
    <path id="Path_57" data-name="Path 57" d="M71.982,24.242h0c-.718-.253-.926-1.437-.958-2.54a39.668,39.668,0,0,0,.155-5.47c-.038-.957.018-8.865-.309-10.022a9.07,9.07,0,0,0,.772,1.138c.765.911,3.766,2.2,5.2,7.038C77.966,19.377,74.517,22.906,71.982,24.242Z" transform="translate(-58.482 -1.411)" fill="#12924f"/>
  </g>
  <path id="expressjs-icon" d="M18,21.322c-.655.239-1.06.011-1.423-.773l-2.584-5.135-.373-.711L10.6,20.566c-.345.705-.707,1.012-1.35.763l3.864-7.451-3.6-6.73c.619-.173,1.046-.085,1.426.711l2.68,5.2,2.7-5.171c.346-.705.718-.974,1.339-.713L16.268,9.83l-1.89,3.535a.965.965,0,0,0,.013,1.071ZM0,13.753.321,11.52C1.181,7.1,4.708,5.264,7.14,7.995c1.421,1.606,1.775,3.878,1.7,6.423H.833c-.12,4.581,2.175,7.346,5.1,5.935a4.156,4.156,0,0,0,1.934-3.095c.154-.724.408-.837.881-.63a6.355,6.355,0,0,1-1.941,4.26,3.675,3.675,0,0,1-5.476-1.008A8.754,8.754,0,0,1,.1,15.751c-.023-.255-.068-.5-.1-.743q0-.627,0-1.254Zm.843-.307h7.24C8.04,10.134,6.6,7.781,4.642,7.761,2.487,7.736.941,10.033.847,13.446Z" transform="translate(111 34.893)" fill="#fff"/>
  <text id="ReactJS" transform="translate(158 75)" fill="#61dafb" font-size="11" font-family="Calibri-Bold, Calibri" font-weight="700"><tspan x="0" y="0">ReactJS</tspan></text>
  <text id="NodeJS-2" data-name="NodeJS" transform="translate(209 75)" fill="#539e43" font-size="11" font-family="Calibri-Bold, Calibri" font-weight="700"><tspan x="0" y="0">NodeJS</tspan></text>
  <text id="MongoDB" transform="translate(46 75)" fill="#12924f" font-size="11" font-family="Calibri-Bold, Calibri" font-weight="700"><tspan x="0" y="0">MongoDB</tspan></text>
  <text id="ExpressJs" transform="translate(102 75)" fill="#fff" font-size="11" font-family="Calibri-Bold, Calibri" font-weight="700"><tspan x="0" y="0">ExpressJs</tspan></text>
  <text id="TechStack_Used" data-name="TechStack Used" transform="translate(97 20)" fill="#fff" font-size="15" font-family="Calibri-Bold, Calibri" font-weight="700"><tspan x="0" y="0">TechStack Used</tspan></text>
</svg>
